%TF.GenerationSoftware,KiCad,Pcbnew,(6.0.0)*%
%TF.CreationDate,2022-07-07T17:58:35-06:00*%
%TF.ProjectId,Turbopump Controller,54757262-6f70-4756-9d70-20436f6e7472,rev?*%
%TF.SameCoordinates,Original*%
%TF.FileFunction,Copper,L4,Bot*%
%TF.FilePolarity,Positive*%
%FSLAX46Y46*%
G04 Gerber Fmt 4.6, Leading zero omitted, Abs format (unit mm)*
G04 Created by KiCad (PCBNEW (6.0.0)) date 2022-07-07 17:58:35*
%MOMM*%
%LPD*%
G01*
G04 APERTURE LIST*
%TA.AperFunction,Profile*%
%ADD10C,0.100000*%
%TD*%
%TA.AperFunction,ComponentPad*%
%ADD11R,1.700000X1.700000*%
%TD*%
%TA.AperFunction,ComponentPad*%
%ADD12O,1.700000X1.700000*%
%TD*%
%TA.AperFunction,ComponentPad*%
%ADD13C,4.700000*%
%TD*%
%TA.AperFunction,ComponentPad*%
%ADD14C,1.400000*%
%TD*%
%TA.AperFunction,ComponentPad*%
%ADD15O,1.400000X1.400000*%
%TD*%
%TA.AperFunction,ComponentPad*%
%ADD16R,1.905000X2.000000*%
%TD*%
%TA.AperFunction,ComponentPad*%
%ADD17O,1.905000X2.000000*%
%TD*%
%TA.AperFunction,ComponentPad*%
%ADD18R,1.600000X1.600000*%
%TD*%
%TA.AperFunction,ComponentPad*%
%ADD19C,1.600000*%
%TD*%
%TA.AperFunction,ComponentPad*%
%ADD20R,2.400000X2.400000*%
%TD*%
%TA.AperFunction,ComponentPad*%
%ADD21O,2.400000X2.400000*%
%TD*%
%TA.AperFunction,ComponentPad*%
%ADD22R,4.500000X2.500000*%
%TD*%
%TA.AperFunction,ComponentPad*%
%ADD23O,4.500000X2.500000*%
%TD*%
%TA.AperFunction,ComponentPad*%
%ADD24R,1.879600X1.879600*%
%TD*%
%TA.AperFunction,ComponentPad*%
%ADD25C,1.879600*%
%TD*%
%TA.AperFunction,ComponentPad*%
%ADD26C,2.000000*%
%TD*%
%TA.AperFunction,ComponentPad*%
%ADD27R,3.000000X3.000000*%
%TD*%
%TA.AperFunction,ComponentPad*%
%ADD28C,3.000000*%
%TD*%
%TA.AperFunction,ViaPad*%
%ADD29C,0.800000*%
%TD*%
%TA.AperFunction,ViaPad*%
%ADD30C,2.000000*%
%TD*%
%TA.AperFunction,ViaPad*%
%ADD31C,1.800000*%
%TD*%
%TA.AperFunction,Conductor*%
%ADD32C,0.250000*%
%TD*%
%TA.AperFunction,Conductor*%
%ADD33C,1.000000*%
%TD*%
G04 APERTURE END LIST*
D10*
X92870000Y-53320000D02*
X235620000Y-53320000D01*
X235620000Y-53320000D02*
X235620000Y-140720000D01*
X235620000Y-140720000D02*
X92870000Y-140720000D01*
X92870000Y-140720000D02*
X92870000Y-53320000D01*
D11*
%TO.P,SW1,1,A*%
%TO.N,GND*%
X97775000Y-95170000D03*
D12*
%TO.P,SW1,2,B*%
%TO.N,Net-(SW1-Pad2)*%
X97775000Y-92630000D03*
%TD*%
D13*
%TO.P,REF\u002A\u002A,1*%
%TO.N,N/C*%
X232030000Y-56630000D03*
%TD*%
D14*
%TO.P,R1,1*%
%TO.N,Net-(C1-Pad1)*%
X218150000Y-60050000D03*
D15*
%TO.P,R1,2*%
%TO.N,Net-(C5-Pad1)*%
X225770000Y-60050000D03*
%TD*%
D11*
%TO.P,J1,1,Pin_1*%
%TO.N,Net-(J1-Pad1)*%
X213085000Y-59205000D03*
D12*
%TO.P,J1,2,Pin_2*%
%TO.N,Net-(J1-Pad2)*%
X210545000Y-59205000D03*
%TO.P,J1,3,Pin_3*%
%TO.N,Net-(J1-Pad3)*%
X208005000Y-59205000D03*
%TD*%
D13*
%TO.P,REF\u002A\u002A,1*%
%TO.N,N/C*%
X110750000Y-56510000D03*
%TD*%
D11*
%TO.P,J4,1,Pin_1*%
%TO.N,Net-(J4-Pad1)*%
X96890000Y-57979000D03*
D12*
%TO.P,J4,2,Pin_2*%
%TO.N,+5V*%
X99430000Y-57979000D03*
%TD*%
D16*
%TO.P,U6,1,VI*%
%TO.N,Net-(C6-Pad1)*%
X151370000Y-95205000D03*
D17*
%TO.P,U6,2,GND*%
%TO.N,GND*%
X148830000Y-95205000D03*
%TO.P,U6,3,VO*%
%TO.N,+15V*%
X146290000Y-95205000D03*
%TD*%
D18*
%TO.P,C1,1*%
%TO.N,Net-(C1-Pad1)*%
X184930000Y-74662651D03*
D19*
%TO.P,C1,2*%
%TO.N,GND*%
X184930000Y-69662651D03*
%TD*%
D20*
%TO.P,D2,1,K*%
%TO.N,Net-(C1-Pad1)*%
X166800000Y-71960000D03*
D21*
%TO.P,D2,2,A*%
%TO.N,Net-(D2-Pad2)*%
X166800000Y-84660000D03*
%TD*%
D11*
%TO.P,J6,1,Pin_1*%
%TO.N,GND*%
X148880000Y-56340000D03*
D12*
%TO.P,J6,2,Pin_2*%
%TO.N,Net-(C30-Pad1)*%
X146340000Y-56340000D03*
%TO.P,J6,3,Pin_3*%
%TO.N,Net-(J6-Pad3)*%
X143800000Y-56340000D03*
%TO.P,J6,4,Pin_4*%
%TO.N,Net-(J6-Pad4)*%
X141260000Y-56340000D03*
%TO.P,J6,5,Pin_5*%
%TO.N,Net-(J6-Pad5)*%
X138720000Y-56340000D03*
%TO.P,J6,6,Pin_6*%
%TO.N,Net-(J6-Pad6)*%
X136180000Y-56340000D03*
%TD*%
D11*
%TO.P,SW3,1,A*%
%TO.N,GND*%
X97750000Y-88770000D03*
D12*
%TO.P,SW3,2,B*%
%TO.N,Net-(SW3-Pad2)*%
X97750000Y-86230000D03*
%TD*%
D11*
%TO.P,J7,1,Pin_1*%
%TO.N,Net-(J7-Pad1)*%
X134650000Y-89925000D03*
D12*
%TO.P,J7,2,Pin_2*%
%TO.N,Net-(J7-Pad2)*%
X132110000Y-89925000D03*
%TO.P,J7,3,Pin_3*%
%TO.N,Net-(J7-Pad3)*%
X129570000Y-89925000D03*
%TO.P,J7,4,Pin_4*%
%TO.N,Net-(J7-Pad4)*%
X127030000Y-89925000D03*
%TO.P,J7,5,Pin_5*%
%TO.N,Net-(J7-Pad5)*%
X124490000Y-89925000D03*
%TO.P,J7,6,Pin_6*%
%TO.N,Net-(J7-Pad6)*%
X121950000Y-89925000D03*
%TO.P,J7,7,Pin_7*%
%TO.N,Net-(J7-Pad7)*%
X119410000Y-89925000D03*
%TO.P,J7,8,Pin_8*%
%TO.N,Net-(J7-Pad8)*%
X116870000Y-89925000D03*
%TO.P,J7,9,Pin_9*%
%TO.N,Net-(J7-Pad9)*%
X114330000Y-89925000D03*
%TO.P,J7,10,Pin_10*%
%TO.N,Net-(J7-Pad10)*%
X111790000Y-89925000D03*
%TD*%
D22*
%TO.P,Q3,1,D*%
%TO.N,Net-(C1-Pad1)*%
X166795000Y-100210000D03*
D23*
%TO.P,Q3,2,S*%
%TO.N,GND*%
X166795000Y-94760000D03*
%TO.P,Q3,3,G*%
%TO.N,Net-(D6-Pad2)*%
X166795000Y-89310000D03*
%TD*%
D11*
%TO.P,J3,1,Pin_1*%
%TO.N,GND*%
X229205000Y-72430000D03*
D12*
%TO.P,J3,2,Pin_2*%
%TO.N,Net-(D10-Pad3)*%
X229205000Y-74970000D03*
%TO.P,J3,3,Pin_3*%
%TO.N,Net-(J3-Pad3)*%
X229205000Y-77510000D03*
%TO.P,J3,4,Pin_4*%
%TO.N,Net-(C5-Pad1)*%
X229205000Y-80050000D03*
%TO.P,J3,5,Pin_5*%
%TO.N,+5V*%
X229205000Y-82590000D03*
%TD*%
D14*
%TO.P,R4,1*%
%TO.N,Net-(C5-Pad1)*%
X228230000Y-60050000D03*
D15*
%TO.P,R4,2*%
%TO.N,Net-(C5-Pad2)*%
X228230000Y-67670000D03*
%TD*%
D11*
%TO.P,SW2,1,A*%
%TO.N,GND*%
X97765000Y-82480000D03*
D12*
%TO.P,SW2,2,B*%
%TO.N,Net-(SW2-Pad2)*%
X97765000Y-79940000D03*
%TD*%
D11*
%TO.P,J2,1,Pin_1*%
%TO.N,Net-(D10-Pad4)*%
X165950000Y-57885000D03*
D12*
%TO.P,J2,2,Pin_2*%
%TO.N,Net-(D10-Pad3)*%
X168490000Y-57885000D03*
%TD*%
D18*
%TO.P,C4,1*%
%TO.N,Net-(C1-Pad1)*%
X174540000Y-67262651D03*
D19*
%TO.P,C4,2*%
%TO.N,GND*%
X174540000Y-62262651D03*
%TD*%
D24*
%TO.P,U12,1,RST*%
%TO.N,unconnected-(U12-Pad1)*%
X97750000Y-136500000D03*
D25*
%TO.P,U12,2,RX*%
%TO.N,unconnected-(U12-Pad2)*%
X97750000Y-133960000D03*
%TO.P,U12,3,GND*%
%TO.N,unconnected-(U12-Pad3)*%
X97750000Y-131420000D03*
%TO.P,U12,4,3.3V*%
%TO.N,unconnected-(U12-Pad4)*%
X97750000Y-128880000D03*
%TO.P,U12,5,GND*%
%TO.N,GND*%
X97750000Y-126340000D03*
%TO.P,U12,6,RAW*%
%TO.N,Net-(U12-Pad6)*%
X97750000Y-123800000D03*
%TO.P,U12,7,DA*%
%TO.N,unconnected-(U12-Pad7)*%
X97750000Y-121260000D03*
%TO.P,U12,8,CL*%
%TO.N,unconnected-(U12-Pad8)*%
X97750000Y-118720000D03*
%TO.P,U12,9,TX0*%
%TO.N,unconnected-(U12-Pad9)*%
X97750000Y-116180000D03*
%TO.P,U12,10,RXI*%
%TO.N,unconnected-(U12-Pad10)*%
X97750000Y-113640000D03*
%TO.P,U12,11,\u005CCS*%
%TO.N,Net-(U12-Pad11)*%
X97750000Y-111100000D03*
%TO.P,U12,12,SDI*%
%TO.N,Net-(U12-Pad12)*%
X97750000Y-108560000D03*
%TO.P,U12,13,SDO*%
%TO.N,Net-(U12-Pad13)*%
X97750000Y-106020000D03*
%TO.P,U12,14,SCK*%
%TO.N,Net-(U12-Pad14)*%
X97750000Y-103482540D03*
%TO.P,U12,15,R*%
%TO.N,unconnected-(U12-Pad15)*%
X97750000Y-100942540D03*
%TO.P,U12,16,TX*%
%TO.N,unconnected-(U12-Pad16)*%
X97750000Y-98402540D03*
%TD*%
D13*
%TO.P,REF\u002A\u002A,1*%
%TO.N,N/C*%
X105150000Y-135830000D03*
%TD*%
D26*
%TO.P,K1,11*%
%TO.N,Net-(J1-Pad1)*%
X216580000Y-67730000D03*
%TO.P,K1,12*%
%TO.N,Net-(D1-Pad2)*%
X224200000Y-67730000D03*
%TO.P,K1,13*%
%TO.N,N/C*%
X216580000Y-65190000D03*
%TO.P,K1,14*%
%TO.N,unconnected-(K1-Pad14)*%
X224200000Y-65190000D03*
%TO.P,K1,A1*%
%TO.N,Net-(D3-Pad1)*%
X216580000Y-77890000D03*
%TO.P,K1,A2*%
%TO.N,Net-(D3-Pad2)*%
X224200000Y-77890000D03*
%TD*%
D14*
%TO.P,R7,1*%
%TO.N,Net-(D6-Pad2)*%
X161910000Y-88540000D03*
D15*
%TO.P,R7,2*%
%TO.N,GND*%
X161910000Y-96160000D03*
%TD*%
D18*
%TO.P,C2,1*%
%TO.N,Net-(C1-Pad1)*%
X186390000Y-83917349D03*
D19*
%TO.P,C2,2*%
%TO.N,GND*%
X186390000Y-88917349D03*
%TD*%
D20*
%TO.P,D7,1,K*%
%TO.N,Net-(D6-Pad2)*%
X158170000Y-88520000D03*
D21*
%TO.P,D7,2,A*%
%TO.N,GND*%
X158170000Y-101220000D03*
%TD*%
D18*
%TO.P,C6,1*%
%TO.N,Net-(C6-Pad1)*%
X184740000Y-57137349D03*
D19*
%TO.P,C6,2*%
%TO.N,GND*%
X184740000Y-62137349D03*
%TD*%
D13*
%TO.P,REF\u002A\u002A,1*%
%TO.N,N/C*%
X225970000Y-137290000D03*
%TD*%
D18*
%TO.P,C3,1*%
%TO.N,Net-(C1-Pad1)*%
X174890000Y-78817349D03*
D19*
%TO.P,C3,2*%
%TO.N,GND*%
X174890000Y-83817349D03*
%TD*%
D20*
%TO.P,D5,1,K*%
%TO.N,Net-(D2-Pad2)*%
X162240000Y-84640000D03*
D21*
%TO.P,D5,2,A*%
%TO.N,Net-(D5-Pad2)*%
X162240000Y-71940000D03*
%TD*%
D11*
%TO.P,J5,1,Pin_1*%
%TO.N,Net-(J5-Pad1)*%
X232755000Y-110410000D03*
D12*
%TO.P,J5,2,Pin_2*%
%TO.N,Net-(J5-Pad2)*%
X232755000Y-112950000D03*
%TO.P,J5,3,Pin_3*%
%TO.N,Net-(J5-Pad3)*%
X232755000Y-115490000D03*
%TO.P,J5,4,Pin_4*%
%TO.N,GND*%
X232755000Y-118030000D03*
%TD*%
D26*
%TO.P,K2,11*%
%TO.N,Net-(D1-Pad3)*%
X200930000Y-67780000D03*
%TO.P,K2,12*%
%TO.N,Net-(J1-Pad2)*%
X208550000Y-67780000D03*
%TO.P,K2,13*%
%TO.N,N/C*%
X200930000Y-65240000D03*
%TO.P,K2,14*%
%TO.N,Net-(J1-Pad3)*%
X208550000Y-65240000D03*
%TO.P,K2,A1*%
%TO.N,Net-(D3-Pad1)*%
X200930000Y-77940000D03*
%TO.P,K2,A2*%
%TO.N,Net-(D4-Pad2)*%
X208550000Y-77940000D03*
%TD*%
D27*
%TO.P,D1,1,+*%
%TO.N,Net-(C1-Pad1)*%
X194387500Y-78307500D03*
D28*
%TO.P,D1,2*%
%TO.N,Net-(D1-Pad2)*%
X194387500Y-73307500D03*
%TO.P,D1,3*%
%TO.N,Net-(D1-Pad3)*%
X194387500Y-68307500D03*
%TO.P,D1,4,-*%
%TO.N,GND*%
X194387500Y-63307500D03*
%TD*%
D29*
%TO.N,GND*%
X191390000Y-54590000D03*
X191420000Y-56770000D03*
X146300000Y-62440000D03*
X233660000Y-85910000D03*
X233660000Y-88100000D03*
X231010000Y-136570000D03*
X138140000Y-131760000D03*
X113940000Y-98470000D03*
X189100000Y-137300000D03*
X131500000Y-104300000D03*
X171150000Y-138740000D03*
X124880000Y-139480000D03*
X171190000Y-54590000D03*
X194670000Y-137240000D03*
X146360000Y-87010000D03*
X155920000Y-56530000D03*
X168390000Y-54740000D03*
X108180000Y-81970000D03*
X189130000Y-139480000D03*
X163060000Y-54470000D03*
X113840000Y-124570000D03*
X131450000Y-98310000D03*
X113700000Y-118670000D03*
X234420000Y-62190000D03*
X231260000Y-90170000D03*
X185830000Y-137370000D03*
X130550000Y-119660000D03*
D30*
X200420000Y-119760000D03*
D29*
X147380000Y-131180000D03*
X140790000Y-98280000D03*
X153580000Y-56510000D03*
X153550000Y-54330000D03*
X123220000Y-96490000D03*
X104330000Y-104290000D03*
X185830000Y-139560000D03*
X233630000Y-90180000D03*
X104270000Y-111810000D03*
X178950000Y-54910000D03*
X193760000Y-54600000D03*
X106610000Y-109640000D03*
X97480000Y-72110000D03*
X136220000Y-93650000D03*
X124590000Y-54520000D03*
X234420000Y-64380000D03*
X122220000Y-54510000D03*
X128800000Y-54330000D03*
X97480000Y-69920000D03*
X233630000Y-92370000D03*
D30*
X200520000Y-135150000D03*
D29*
X95140000Y-72090000D03*
X183460000Y-137360000D03*
X149940000Y-129010000D03*
X124410000Y-118540000D03*
X171120000Y-136560000D03*
X123230000Y-139500000D03*
X231040000Y-138750000D03*
X156870000Y-67980000D03*
X181360000Y-54510000D03*
X120880000Y-82030000D03*
X197040000Y-137250000D03*
X194700000Y-139420000D03*
X106610000Y-111830000D03*
X183490000Y-139540000D03*
X231290000Y-92350000D03*
X120880000Y-67300000D03*
X106700000Y-104300000D03*
X131170000Y-54340000D03*
X165810000Y-54700000D03*
X193760000Y-56790000D03*
X176610000Y-57080000D03*
X160990000Y-54710000D03*
X102160000Y-59690000D03*
X113640000Y-138250000D03*
X185560000Y-54340000D03*
X133540000Y-86556940D03*
X133580000Y-67290000D03*
X232080000Y-64360000D03*
X165980000Y-136560000D03*
X176580000Y-54900000D03*
X189010000Y-56940000D03*
X124590000Y-56710000D03*
X150910000Y-62400000D03*
X168350000Y-136570000D03*
X104430000Y-115110000D03*
X126520000Y-139500000D03*
X95110000Y-69910000D03*
X145040000Y-131160000D03*
X113974500Y-108560000D03*
X105650000Y-98060000D03*
X155920000Y-54340000D03*
X147380000Y-128990000D03*
X158580000Y-55050000D03*
X162420000Y-58290000D03*
X145010000Y-128980000D03*
X152310000Y-129020000D03*
X191470000Y-137310000D03*
X106800000Y-115120000D03*
X158170000Y-58500000D03*
D30*
X200450000Y-105340000D03*
D29*
X142630000Y-98160000D03*
X233380000Y-138770000D03*
X104460000Y-117290000D03*
X122250000Y-56690000D03*
X104240000Y-109630000D03*
X131170000Y-56530000D03*
X127520000Y-122810000D03*
X106700000Y-106490000D03*
X154315500Y-74610000D03*
X108180000Y-67340000D03*
X232050000Y-62180000D03*
X231320000Y-88080000D03*
X233380000Y-136580000D03*
X168350000Y-138760000D03*
X106800000Y-117310000D03*
X152310000Y-131210000D03*
X188110000Y-54760000D03*
X173490000Y-138760000D03*
X136280000Y-131620000D03*
X178950000Y-57100000D03*
X155060000Y-98200000D03*
X197040000Y-139440000D03*
X231290000Y-85900000D03*
X126170000Y-128440000D03*
X173490000Y-136570000D03*
X104360000Y-106470000D03*
X149970000Y-131190000D03*
X191470000Y-139500000D03*
X128830000Y-56510000D03*
X166010000Y-138740000D03*
%TO.N,Net-(C6-Pad1)*%
X159280000Y-59870000D03*
X171440000Y-55980000D03*
%TO.N,+5V*%
X126520000Y-102940000D03*
X113710000Y-110990000D03*
X130880000Y-93980000D03*
X113390000Y-103190000D03*
X112360000Y-125360000D03*
X204640000Y-90680000D03*
X190180000Y-91560000D03*
X206610000Y-90060000D03*
X130420000Y-101570000D03*
%TO.N,+15V*%
X143260000Y-92580000D03*
X137650000Y-93320000D03*
X131280000Y-100380000D03*
X192040000Y-90530000D03*
D31*
%TO.N,Net-(C15-Pad2)*%
X170440000Y-105610000D03*
X175420000Y-105590000D03*
D29*
X152130000Y-109660000D03*
X148860000Y-109230000D03*
D31*
%TO.N,Net-(C18-Pad2)*%
X175390000Y-118650000D03*
D29*
X151150000Y-115490000D03*
X148460000Y-114220000D03*
D31*
X169020000Y-118750000D03*
D29*
%TO.N,Net-(C30-Pad1)*%
X148810000Y-68190000D03*
X138150000Y-127380000D03*
X148810000Y-89500000D03*
X142000000Y-92490000D03*
%TO.N,Net-(D10-Pad3)*%
X153252701Y-61697299D03*
X129290000Y-61220000D03*
X189770000Y-69910000D03*
X227070000Y-74340000D03*
%TO.N,Net-(J3-Pad3)*%
X123450000Y-60300000D03*
X210040000Y-85250000D03*
X226462300Y-84782300D03*
%TO.N,Net-(J6-Pad3)*%
X129760000Y-132940000D03*
X145760000Y-60480000D03*
%TO.N,Net-(J6-Pad4)*%
X141200000Y-68500000D03*
X112610000Y-113660000D03*
%TO.N,Net-(J6-Pad5)*%
X138640000Y-68650000D03*
X120220000Y-92710000D03*
D30*
%TO.N,Net-(D1-Pad2)*%
X221540000Y-67650000D03*
D29*
%TO.N,Net-(Q2-Pad1)*%
X208680000Y-82440000D03*
X208670000Y-84400000D03*
%TO.N,Net-(R8-Pad1)*%
X130644511Y-114930000D03*
X125695819Y-107677872D03*
%TO.N,Net-(U12-Pad13)*%
X100720000Y-90710000D03*
X100240000Y-102650000D03*
%TO.N,Net-(U12-Pad11)*%
X105478531Y-93726000D03*
X105650000Y-88710000D03*
%TO.N,Net-(SW1-Pad2)*%
X102855500Y-94800000D03*
X100964500Y-92910000D03*
%TO.N,Net-(SW2-Pad2)*%
X129230000Y-58230000D03*
%TO.N,Net-(SW3-Pad2)*%
X117690000Y-60875511D03*
%TO.N,Net-(U12-Pad6)*%
X112490000Y-62140000D03*
X103590000Y-98900000D03*
%TO.N,Net-(U11-Pad2)*%
X123270000Y-113200000D03*
X123432775Y-109547070D03*
%TO.N,Net-(U11-Pad5)*%
X122840000Y-120270000D03*
X122840000Y-121924500D03*
%TO.N,Net-(U11-Pad6)*%
X126170000Y-115110000D03*
X123984500Y-110380500D03*
X128000000Y-112940500D03*
%TO.N,Net-(U11-Pad4)*%
X129020000Y-109870000D03*
X125189842Y-108539842D03*
%TO.N,Net-(U11-Pad7)*%
X112700000Y-121570000D03*
X125330000Y-113650000D03*
X122520000Y-107750000D03*
%TO.N,Net-(R11-Pad2)*%
X117710000Y-133540000D03*
X126590000Y-133000000D03*
%TO.N,Net-(RV1-Pad2)*%
X124050000Y-107240000D03*
X130644500Y-116180000D03*
%TO.N,Net-(Q7-Pad3)*%
X158280000Y-130190000D03*
X130290000Y-120670000D03*
X158310000Y-120920000D03*
X158290000Y-111740000D03*
X123240000Y-106370000D03*
%TO.N,Net-(R13-Pad2)*%
X143530000Y-117180000D03*
X149970000Y-117180000D03*
%TO.N,Net-(R10-Pad2)*%
X143580000Y-112030000D03*
X150680000Y-112030000D03*
%TO.N,Net-(R9-Pad2)*%
X143520000Y-106950000D03*
X151124020Y-106950000D03*
%TO.N,Net-(Q7-Pad1)*%
X148920000Y-121310000D03*
X155900000Y-107070000D03*
%TO.N,Net-(Q8-Pad1)*%
X156060000Y-115150000D03*
X151060000Y-122570000D03*
%TO.N,Net-(Q9-Pad1)*%
X152630000Y-123800000D03*
X155720000Y-123800000D03*
%TO.N,Net-(D3-Pad1)*%
X201500000Y-83630000D03*
X211520000Y-83500000D03*
%TD*%
D32*
%TO.N,Net-(D10-Pad3)*%
X189770000Y-73520000D02*
X191840000Y-75590000D01*
X189770000Y-69910000D02*
X189770000Y-73520000D01*
X191840000Y-75590000D02*
X225820000Y-75590000D01*
X225820000Y-75590000D02*
X227070000Y-74340000D01*
D33*
%TO.N,Net-(D1-Pad2)*%
X215882500Y-73307500D02*
X194387500Y-73307500D01*
X221540000Y-67650000D02*
X215882500Y-73307500D01*
D32*
%TO.N,Net-(C6-Pad1)*%
X170930000Y-55980000D02*
X170630000Y-55680000D01*
X171440000Y-55980000D02*
X170930000Y-55980000D01*
X163470000Y-55680000D02*
X159280000Y-59870000D01*
X170630000Y-55680000D02*
X163470000Y-55680000D01*
%TO.N,+5V*%
X113650000Y-102930000D02*
X114060000Y-102930000D01*
X112360000Y-125360000D02*
X112360000Y-122550000D01*
X137480000Y-91560000D02*
X190180000Y-91560000D01*
X130880000Y-93980000D02*
X130420000Y-94440000D01*
X113390000Y-103190000D02*
X113650000Y-102930000D01*
X130420000Y-94440000D02*
X130420000Y-101570000D01*
X135938793Y-92265489D02*
X136774511Y-92265489D01*
X134274282Y-93930000D02*
X135938793Y-92265489D01*
X114060000Y-102930000D02*
X114070000Y-102940000D01*
X130930000Y-93930000D02*
X134274282Y-93930000D01*
X205260000Y-90060000D02*
X206610000Y-90060000D01*
X136774511Y-92265489D02*
X137480000Y-91560000D01*
X111900000Y-122090000D02*
X111900000Y-117560000D01*
X113710000Y-110990000D02*
X113710000Y-115760000D01*
X130880000Y-93980000D02*
X130930000Y-93930000D01*
X204640000Y-90680000D02*
X205260000Y-90060000D01*
X111900000Y-117560000D02*
X112930000Y-116530000D01*
X113710000Y-115760000D02*
X112980000Y-116490000D01*
X114070000Y-102940000D02*
X126520000Y-102940000D01*
X112360000Y-122550000D02*
X111900000Y-122090000D01*
%TO.N,+15V*%
X136944511Y-94715489D02*
X131280000Y-100380000D01*
X136944511Y-94025489D02*
X136944511Y-94715489D01*
X137650000Y-93320000D02*
X136944511Y-94025489D01*
X192040000Y-90530000D02*
X191900000Y-90530000D01*
X191900000Y-90530000D02*
X190904511Y-91525489D01*
X189704991Y-92284511D02*
X189430000Y-92009520D01*
X190904511Y-91860103D02*
X190480103Y-92284511D01*
X143830480Y-92009520D02*
X143260000Y-92580000D01*
X190480103Y-92284511D02*
X189704991Y-92284511D01*
X189430000Y-92009520D02*
X143830480Y-92009520D01*
X190904511Y-91525489D02*
X190904511Y-91860103D01*
%TO.N,Net-(C15-Pad2)*%
X149290000Y-109660000D02*
X152130000Y-109660000D01*
D33*
X175420000Y-105590000D02*
X175400000Y-105610000D01*
D32*
X148860000Y-109230000D02*
X149290000Y-109660000D01*
D33*
X175400000Y-105610000D02*
X170440000Y-105610000D01*
%TO.N,Net-(C18-Pad2)*%
X175390000Y-118650000D02*
X175290000Y-118750000D01*
D32*
X149730000Y-115490000D02*
X151150000Y-115490000D01*
D33*
X175290000Y-118750000D02*
X169020000Y-118750000D01*
D32*
X148460000Y-114220000D02*
X149730000Y-115490000D01*
%TO.N,Net-(C30-Pad1)*%
X148810000Y-89500000D02*
X148810000Y-68190000D01*
X138150000Y-127380000D02*
X138150000Y-96340000D01*
X138150000Y-96340000D02*
X142000000Y-92490000D01*
%TO.N,Net-(D10-Pad3)*%
X153252701Y-61697299D02*
X152815402Y-61260000D01*
X152815402Y-61260000D02*
X129330000Y-61260000D01*
X129330000Y-61260000D02*
X129290000Y-61220000D01*
%TO.N,Net-(J3-Pad3)*%
X226409600Y-84835000D02*
X210455000Y-84835000D01*
X170087162Y-68387162D02*
X181220000Y-79520000D01*
X185960000Y-79520000D02*
X192014031Y-85574031D01*
X210455000Y-84835000D02*
X210040000Y-85250000D01*
X152925717Y-59710000D02*
X161602879Y-68387162D01*
X161602879Y-68387162D02*
X170087162Y-68387162D01*
X124040000Y-59710000D02*
X152925717Y-59710000D01*
X226462300Y-84782300D02*
X226409600Y-84835000D01*
X209715969Y-85574031D02*
X210040000Y-85250000D01*
X123450000Y-60300000D02*
X124040000Y-59710000D01*
X192014031Y-85574031D02*
X209715969Y-85574031D01*
X181220000Y-79520000D02*
X185960000Y-79520000D01*
%TO.N,Net-(J6-Pad3)*%
X155130000Y-87510000D02*
X155130000Y-62550000D01*
X129970480Y-94485094D02*
X129695489Y-94210103D01*
X129695489Y-101269897D02*
X129970480Y-100994906D01*
X131369011Y-131330989D02*
X131369011Y-105289011D01*
X129970480Y-100994906D02*
X129970480Y-94485094D01*
X129695489Y-94210103D02*
X129695489Y-92964511D01*
X135752596Y-91815969D02*
X136588314Y-91815969D01*
X131369011Y-105289011D02*
X129695489Y-103615489D01*
X137293803Y-91110480D02*
X151529520Y-91110480D01*
X155130000Y-62550000D02*
X152739520Y-60159520D01*
X129760000Y-132940000D02*
X131369011Y-131330989D01*
X129695489Y-103615489D02*
X129695489Y-101269897D01*
X152739520Y-60159520D02*
X146080480Y-60159520D01*
X136588314Y-91815969D02*
X137293803Y-91110480D01*
X129695489Y-92964511D02*
X130440000Y-92220000D01*
X146080480Y-60159520D02*
X145760000Y-60480000D01*
X130440000Y-92220000D02*
X135348564Y-92220000D01*
X151529520Y-91110480D02*
X155130000Y-87510000D01*
X135348564Y-92220000D02*
X135752596Y-91815969D01*
%TO.N,Net-(J6-Pad4)*%
X123210000Y-95020000D02*
X123210000Y-88330000D01*
X132835718Y-83260000D02*
X141200000Y-74895718D01*
X123944511Y-97985489D02*
X123944511Y-95754511D01*
X112584906Y-101249520D02*
X112859897Y-101524511D01*
X108010000Y-104670000D02*
X111430480Y-101249520D01*
X112610000Y-113660000D02*
X109970000Y-113660000D01*
X123944511Y-95754511D02*
X123210000Y-95020000D01*
X112859897Y-101524511D02*
X113460103Y-101524511D01*
X113764614Y-101220000D02*
X120710000Y-101220000D01*
X123210000Y-88330000D02*
X128280000Y-83260000D01*
X120710000Y-101220000D02*
X123944511Y-97985489D01*
X108010000Y-111700000D02*
X108010000Y-104670000D01*
X111430480Y-101249520D02*
X112584906Y-101249520D01*
X109970000Y-113660000D02*
X108010000Y-111700000D01*
X128280000Y-83260000D02*
X132835718Y-83260000D01*
X141200000Y-74895718D02*
X141200000Y-68500000D01*
X113460103Y-101524511D02*
X113764614Y-101220000D01*
%TO.N,Net-(J6-Pad5)*%
X134180000Y-81280000D02*
X138640000Y-76820000D01*
X109650000Y-83540000D02*
X111910000Y-81280000D01*
X111910000Y-81280000D02*
X134180000Y-81280000D01*
X138640000Y-76820000D02*
X138640000Y-68650000D01*
X109650000Y-91640000D02*
X109650000Y-83540000D01*
X110280000Y-92270000D02*
X109650000Y-91640000D01*
X120220000Y-92710000D02*
X119780000Y-92270000D01*
X119780000Y-92270000D02*
X110280000Y-92270000D01*
%TO.N,Net-(Q2-Pad1)*%
X208680000Y-82440000D02*
X208680000Y-84390000D01*
X208680000Y-84390000D02*
X208670000Y-84400000D01*
%TO.N,Net-(R8-Pad1)*%
X129240000Y-109070000D02*
X127850000Y-107680000D01*
X130644511Y-110469897D02*
X130632307Y-110457693D01*
X130644511Y-114930000D02*
X130644511Y-110469897D01*
X129244614Y-109070000D02*
X129240000Y-109070000D01*
X125695819Y-107677872D02*
X127817872Y-107677872D01*
X127850000Y-107680000D02*
X127820000Y-107680000D01*
X130632307Y-110457693D02*
X129244614Y-109070000D01*
X127817872Y-107677872D02*
X127820000Y-107680000D01*
%TO.N,Net-(U12-Pad13)*%
X100240000Y-91190000D02*
X100240000Y-102650000D01*
X100720000Y-90710000D02*
X100240000Y-91190000D01*
%TO.N,Net-(U12-Pad11)*%
X105478531Y-93726000D02*
X105650000Y-93554531D01*
X105650000Y-93554531D02*
X105650000Y-88710000D01*
%TO.N,Net-(SW1-Pad2)*%
X102854500Y-94800000D02*
X100964500Y-92910000D01*
X102855500Y-94800000D02*
X102854500Y-94800000D01*
%TO.N,Net-(SW2-Pad2)*%
X101072585Y-60425980D02*
X99921440Y-61577125D01*
X117114917Y-60425980D02*
X101072585Y-60425980D01*
X117999103Y-60160000D02*
X117990103Y-60151000D01*
X121784282Y-60160000D02*
X117999103Y-60160000D01*
X99921440Y-77783560D02*
X97765000Y-79940000D01*
X117389897Y-60151000D02*
X117114917Y-60425980D01*
X123714282Y-58230000D02*
X121784282Y-60160000D01*
X117990103Y-60151000D02*
X117389897Y-60151000D01*
X99921440Y-61577125D02*
X99921440Y-77783560D01*
X129230000Y-58230000D02*
X123714282Y-58230000D01*
%TO.N,Net-(SW3-Pad2)*%
X100370960Y-83609040D02*
X97750000Y-86230000D01*
X117689989Y-60875500D02*
X101258782Y-60875500D01*
X101258782Y-60875500D02*
X100370960Y-61763322D01*
X117690000Y-60875511D02*
X117689989Y-60875500D01*
X100370960Y-61763322D02*
X100370960Y-83609040D01*
%TO.N,Net-(U12-Pad6)*%
X104304511Y-97415489D02*
X103590000Y-98130000D01*
X112490000Y-62140000D02*
X112124540Y-61774540D01*
X104304511Y-91648793D02*
X104304511Y-97415489D01*
X101105489Y-87759897D02*
X101105489Y-88449771D01*
X101105489Y-88449771D02*
X104304511Y-91648793D01*
X112124540Y-61774540D02*
X101805460Y-61774540D01*
X101270000Y-62310000D02*
X101270000Y-87595386D01*
X101270000Y-87595386D02*
X101105489Y-87759897D01*
X101805460Y-61774540D02*
X101270000Y-62310000D01*
X103590000Y-98130000D02*
X103590000Y-98900000D01*
%TO.N,Net-(U11-Pad2)*%
X123259989Y-109719856D02*
X123259989Y-113189989D01*
X123259989Y-113189989D02*
X123270000Y-113200000D01*
X123432775Y-109547070D02*
X123259989Y-109719856D01*
%TO.N,Net-(U11-Pad5)*%
X122840000Y-120270000D02*
X122840000Y-121924500D01*
%TO.N,Net-(U11-Pad6)*%
X128000000Y-112940500D02*
X126439500Y-112940500D01*
X126170000Y-111816050D02*
X126170000Y-113210000D01*
X126170000Y-115110000D02*
X126170000Y-113210000D01*
X124734450Y-110380500D02*
X126170000Y-111816050D01*
X126439500Y-112940500D02*
X126170000Y-113210000D01*
X123984500Y-110380500D02*
X124734450Y-110380500D01*
%TO.N,Net-(U11-Pad4)*%
X125189842Y-108539842D02*
X126520000Y-109870000D01*
X126520000Y-109870000D02*
X129020000Y-109870000D01*
%TO.N,Net-(U11-Pad7)*%
X114300000Y-116100000D02*
X121898000Y-116100000D01*
X123570103Y-113924511D02*
X123844614Y-113650000D01*
X122520000Y-107750000D02*
X122520000Y-113474614D01*
X122520000Y-114660000D02*
X123255489Y-113924511D01*
X123844614Y-113650000D02*
X125330000Y-113650000D01*
X112700000Y-117700000D02*
X114300000Y-116100000D01*
X121898000Y-116100000D02*
X122520000Y-115478000D01*
X122520000Y-115478000D02*
X122520000Y-113474614D01*
X123255489Y-113924511D02*
X123570103Y-113924511D01*
X112700000Y-121570000D02*
X112700000Y-117700000D01*
%TO.N,Net-(R11-Pad2)*%
X117710000Y-133540000D02*
X126050000Y-133540000D01*
X126050000Y-133540000D02*
X126590000Y-133000000D01*
%TO.N,Net-(RV1-Pad2)*%
X126870332Y-111020332D02*
X128186050Y-111020332D01*
X128186050Y-111020332D02*
X129869520Y-112703803D01*
X126870000Y-111020000D02*
X126870332Y-111020332D01*
X129869520Y-115405020D02*
X130644500Y-116180000D01*
X129869520Y-112703803D02*
X129869520Y-115405020D01*
X124050000Y-108424614D02*
X126645718Y-111020332D01*
X126645718Y-111020332D02*
X126860332Y-111020332D01*
X124050000Y-107240000D02*
X124050000Y-108424614D01*
%TO.N,Net-(Q7-Pad3)*%
X126459520Y-111469852D02*
X127999852Y-111469852D01*
X127999852Y-111469852D02*
X129120000Y-112590000D01*
X123244511Y-106374511D02*
X123244511Y-108254843D01*
X158290000Y-111740000D02*
X158290000Y-130180000D01*
X130280000Y-120670000D02*
X130290000Y-120670000D01*
X123244511Y-108254843D02*
X126459520Y-111469852D01*
X158290000Y-130180000D02*
X158280000Y-130190000D01*
X129120000Y-119510000D02*
X130280000Y-120670000D01*
X123240000Y-106370000D02*
X123244511Y-106374511D01*
X129120000Y-112590000D02*
X129120000Y-119510000D01*
%TO.N,Net-(R13-Pad2)*%
X149630000Y-117180000D02*
X149820000Y-117180000D01*
X143530000Y-117180000D02*
X149630000Y-117180000D01*
X149820000Y-117180000D02*
X149970000Y-117180000D01*
%TO.N,Net-(R10-Pad2)*%
X143580000Y-112030000D02*
X150680000Y-112030000D01*
%TO.N,Net-(R9-Pad2)*%
X143520000Y-106950000D02*
X151124020Y-106950000D01*
%TO.N,Net-(Q7-Pad1)*%
X155900000Y-107070000D02*
X155900000Y-111100000D01*
X154970000Y-116990000D02*
X153030000Y-118930000D01*
X153030000Y-118930000D02*
X151300000Y-118930000D01*
X151300000Y-118930000D02*
X148920000Y-121310000D01*
X155900000Y-111100000D02*
X154970000Y-112030000D01*
X154970000Y-112030000D02*
X154970000Y-116990000D01*
%TO.N,Net-(Q8-Pad1)*%
X154710000Y-122570000D02*
X156060000Y-121220000D01*
X151060000Y-122570000D02*
X154710000Y-122570000D01*
X156060000Y-121220000D02*
X156060000Y-115150000D01*
%TO.N,Net-(Q9-Pad1)*%
X152630000Y-123800000D02*
X155720000Y-123800000D01*
%TO.N,Net-(D3-Pad1)*%
X211520000Y-83500000D02*
X210765386Y-83500000D01*
X201500000Y-83630000D02*
X202994511Y-85124511D01*
X208785489Y-85124511D02*
X208790000Y-85120000D01*
X209140875Y-85124511D02*
X208790000Y-85124511D01*
X210765386Y-83500000D02*
X209140875Y-85124511D01*
X202994511Y-85124511D02*
X208785489Y-85124511D01*
%TD*%
M02*
