M48
; DRILL file {KiCad (6.0.0)} date Thu Jul  7 17:58:48 2022
; FORMAT={-:-/ absolute / inch / decimal}
; #@! TF.CreationDate,2022-07-07T17:58:48-06:00
; #@! TF.GenerationSoftware,Kicad,Pcbnew,(6.0.0)
; #@! TF.FileFunction,Plated,1,4,PTH
FMAT,2
INCH
; #@! TA.AperFunction,Plated,PTH,ViaDrill
T1C0.0157
; #@! TA.AperFunction,Plated,PTH,ComponentDrill
T2C0.0276
; #@! TA.AperFunction,Plated,PTH,ComponentDrill
T3C0.0315
; #@! TA.AperFunction,Plated,PTH,ViaDrill
T4C0.0394
; #@! TA.AperFunction,Plated,PTH,ComponentDrill
T5C0.0394
; #@! TA.AperFunction,Plated,PTH,ComponentDrill
T6C0.0400
; #@! TA.AperFunction,Plated,PTH,ComponentDrill
T7C0.0433
; #@! TA.AperFunction,Plated,PTH,ComponentDrill
T8C0.0472
; #@! TA.AperFunction,Plated,PTH,ComponentDrill
T9C0.0591
; #@! TA.AperFunction,Plated,PTH,ComponentDrill
T10C0.1063
%
G90
G05
T1
X3.7445Y-2.7524
X3.7457Y-2.8382
X3.8378Y-2.7528
X3.8378Y-2.839
X3.9465Y-4.0413
X3.9654Y-3.5713
X3.975Y-3.6579
X4.022Y-2.35
X4.0494Y-3.7323
X4.0783Y-3.8937
X4.1039Y-4.3161
X4.1051Y-4.402
X4.1075Y-4.1059
X4.1087Y-4.1917
X4.1114Y-4.5319
X4.1126Y-4.6177
X4.1527Y-3.69
X4.1594Y-3.4925
X4.1594Y-3.8606
X4.1972Y-4.3165
X4.1972Y-4.4028
X4.2008Y-4.1063
X4.2008Y-4.1925
X4.2047Y-4.5323
X4.2047Y-4.6185
X4.2591Y-2.6512
X4.2591Y-3.2272
X4.4236Y-4.9354
X4.4287Y-2.4465
X4.4335Y-4.4748
X4.437Y-4.7862
X4.4642Y-4.0626
X4.474Y-5.4429
X4.4764Y-4.672
X4.4768Y-4.3697
X4.4819Y-4.9043
X4.4858Y-3.8768
X4.4872Y-4.274
X4.6335Y-2.3967
X4.6343Y-5.2575
X4.7331Y-3.65
X4.7591Y-2.6496
X4.7591Y-3.2295
X4.8118Y-2.1461
X4.813Y-2.2319
X4.8236Y-4.2421
X4.8362Y-4.735
X4.8362Y-4.8002
X4.8512Y-3.7988
X4.8516Y-5.4921
X4.852Y-4.1878
X4.8531Y-4.4567
X4.8596Y-4.3129
X4.8602Y-2.374
X4.8813Y-4.3457
X4.8839Y-4.222
X4.898Y-4.6669
X4.9051Y-2.1465
X4.9051Y-2.2327
X4.9165Y-5.4913
X4.9287Y-4.2732
X4.9343Y-4.4744
X4.9487Y-4.2393
X4.9673Y-4.5319
X4.9673Y-5.0567
X4.9811Y-4.0528
X4.9811Y-5.4921
X4.9839Y-5.2362
X5.0205Y-4.835
X5.0394Y-4.4465
X5.0709Y-2.139
X5.072Y-2.2248
X5.0795Y-4.3256
X5.0878Y-2.2925
X5.0902Y-2.4102
X5.1087Y-5.2339
X5.1295Y-4.7508
X5.1346Y-3.9988
X5.1398Y-4.711
X5.1435Y-4.574
X5.1435Y-4.5248
X5.1528Y-3.7
X5.1642Y-2.1394
X5.1642Y-2.2256
X5.1685Y-3.952
X5.1752Y-3.8705
X5.1772Y-4.1063
X5.2575Y-3.4078
X5.2591Y-2.6492
X5.363Y-3.687
X5.3654Y-5.1819
X5.4193Y-3.674
X5.4386Y-5.1874
X5.439Y-5.015
X5.4583Y-2.7028
X5.5429Y-3.8693
X5.5591Y-2.6969
X5.5906Y-3.6413
X5.6154Y-3.8646
X5.6402Y-3.6449
X5.6504Y-4.2106
X5.6508Y-4.6134
X5.6528Y-4.4106
X5.7091Y-5.078
X5.7102Y-5.1638
X5.7386Y-2.3811
X5.7598Y-2.4583
X5.7622Y-3.4256
X5.8024Y-5.0783
X5.8024Y-5.1646
X5.8449Y-4.4969
X5.8587Y-2.6846
X5.8587Y-3.5236
X5.8606Y-4.3004
X5.863Y-4.776
X5.9031Y-5.0791
X5.9043Y-4.6134
X5.9043Y-5.165
X5.9323Y-4.4106
X5.9413Y-2.4567
X5.9472Y-4.8256
X5.9498Y-4.2106
X5.9508Y-4.5469
X5.9894Y-4.3173
X5.9965Y-5.0795
X5.9965Y-5.1657
X6.0091Y-4.874
X6.0336Y-2.429
X6.0453Y-2.139
X6.0465Y-2.2248
X6.0754Y-2.9374
X6.1047Y-3.8661
X6.1307Y-4.874
X6.1378Y-4.2154
X6.1386Y-2.1394
X6.1386Y-2.2256
X6.1441Y-4.5335
X6.176Y-2.6764
X6.2272Y-2.3031
X6.2315Y-5.1256
X6.2319Y-4.3992
X6.2327Y-4.7606
X6.2433Y-2.1673
X6.2709Y-2.3571
X6.3382Y-2.1539
X6.3945Y-2.2949
X6.4197Y-2.1445
X6.528Y-2.1535
X6.5346Y-5.3764
X6.5358Y-5.4622
X6.628Y-5.3768
X6.628Y-5.463
X6.6295Y-2.1551
X6.737Y-5.3764
X6.7382Y-5.4622
X6.7398Y-2.1492
X6.7496Y-2.2039
X6.8303Y-5.3768
X6.8303Y-5.463
X6.952Y-2.1614
X6.9531Y-2.2472
X7.0453Y-2.1618
X7.0453Y-2.248
X7.1402Y-2.1461
X7.2228Y-5.4079
X7.224Y-5.4937
X7.3055Y-2.1394
X7.3161Y-5.4083
X7.3161Y-5.4945
X7.4059Y-2.1559
X7.4413Y-2.2417
X7.4449Y-5.4055
X7.4461Y-5.4913
X7.4713Y-2.7524
X7.4874Y-3.6047
X7.535Y-2.1492
X7.5362Y-2.235
X7.5382Y-5.4059
X7.5382Y-5.4921
X7.5606Y-3.5642
X7.6283Y-2.1496
X7.6283Y-2.2358
X7.6642Y-5.4031
X7.6654Y-5.489
X7.7575Y-5.4035
X7.7575Y-5.4898
X7.9331Y-3.2925
X8.0567Y-3.5701
X8.1343Y-3.5457
X8.2154Y-3.3228
X8.2157Y-3.2457
X8.2693Y-3.3563
X8.3276Y-3.2874
X8.9158Y-3.3379
X8.9398Y-2.9268
X9.0949Y-5.3768
X9.0961Y-5.4626
X9.1047Y-3.55
X9.1059Y-3.3819
X9.1059Y-3.6358
X9.1071Y-3.4677
X9.1358Y-2.448
X9.137Y-2.5339
X9.1882Y-5.3772
X9.1882Y-5.4634
X9.198Y-3.5504
X9.198Y-3.6366
X9.1992Y-3.3823
X9.1992Y-3.4685
X9.2291Y-2.4484
X9.2291Y-2.5346
T2
X6.3744Y-3.4858
X6.3744Y-3.7858
X8.5886Y-2.3642
X8.8886Y-2.3642
X8.9854Y-2.3642
X8.9854Y-2.6642
T3
X6.8717Y-2.4513
X6.8717Y-2.6481
X6.8854Y-3.103
X6.8854Y-3.2999
X7.2732Y-2.2495
X7.2732Y-2.4464
X7.2807Y-2.7426
X7.2807Y-2.9395
X7.3382Y-3.3038
X7.3382Y-3.5007
T4
X6.6543Y-4.6752
X6.7102Y-4.1579
X6.9051Y-4.6713
X6.9063Y-4.1571
X7.8906Y-4.715
X7.8917Y-4.1472
X7.8945Y-5.3209
X8.722Y-2.6634
T5
X3.8146Y-2.2826
X3.8484Y-3.3949
X3.8484Y-3.4949
X3.849Y-3.1472
X3.849Y-3.2472
X3.8494Y-3.6469
X3.8494Y-3.7469
X3.9146Y-2.2826
X4.4012Y-3.5404
X4.5012Y-3.5404
X4.6012Y-3.5404
X4.7012Y-3.5404
X4.8012Y-3.5404
X4.9012Y-3.5404
X5.0012Y-3.5404
X5.1012Y-3.5404
X5.2012Y-3.5404
X5.3012Y-3.5404
X5.3614Y-2.2181
X5.4614Y-2.2181
X5.5614Y-2.2181
X5.6614Y-2.2181
X5.7614Y-2.2181
X5.8614Y-2.2181
X6.5335Y-2.2789
X6.6335Y-2.2789
X7.9106Y-2.5685
X7.9106Y-2.6685
X7.9106Y-3.0685
X8.1892Y-2.3309
X8.2106Y-2.5685
X8.2106Y-2.6685
X8.2106Y-3.0685
X8.2892Y-2.3309
X8.3892Y-2.3309
X8.5268Y-2.5665
X8.5268Y-2.6665
X8.5268Y-3.0665
X8.8268Y-2.5665
X8.8268Y-2.6665
X8.8268Y-3.0665
X9.0238Y-2.8516
X9.0238Y-2.9516
X9.0238Y-3.0516
X9.0238Y-3.1516
X9.0238Y-3.2516
X9.1636Y-4.3469
X9.1636Y-4.4469
X9.1636Y-4.5469
X9.1636Y-4.6469
T6
X3.8484Y-3.8741
X3.8484Y-3.9741
X3.8484Y-4.0741
X3.8484Y-4.174
X3.8484Y-4.274
X3.8484Y-4.374
X3.8484Y-4.474
X3.8484Y-4.574
X3.8484Y-4.674
X3.8484Y-4.774
X3.8484Y-4.874
X3.8484Y-4.974
X3.8484Y-5.074
X3.8484Y-5.174
X3.8484Y-5.274
X3.8484Y-5.374
T7
X5.7594Y-3.7482
X5.8594Y-3.7482
X5.9594Y-3.7482
T8
X6.2272Y-3.485
X6.2272Y-3.985
X6.3874Y-2.8323
X6.3874Y-3.3323
X6.5669Y-2.8331
X6.5669Y-3.3331
T9
X6.5667Y-3.5161
X6.5667Y-3.7307
X6.5667Y-3.9453
X7.6531Y-2.4924
X7.6531Y-2.6893
X7.6531Y-2.8861
X7.6531Y-3.083
T10
X4.1398Y-5.3476
X4.3602Y-2.2248
X8.8965Y-5.4051
X9.135Y-2.2295
T0
M30
