%TF.GenerationSoftware,KiCad,Pcbnew,(6.0.0)*%
%TF.CreationDate,2022-06-11T13:18:49-06:00*%
%TF.ProjectId,Turbopump Controller,54757262-6f70-4756-9d70-20436f6e7472,rev?*%
%TF.SameCoordinates,Original*%
%TF.FileFunction,Paste,Top*%
%TF.FilePolarity,Positive*%
%FSLAX46Y46*%
G04 Gerber Fmt 4.6, Leading zero omitted, Abs format (unit mm)*
G04 Created by KiCad (PCBNEW (6.0.0)) date 2022-06-11 13:18:49*
%MOMM*%
%LPD*%
G01*
G04 APERTURE LIST*
G04 Aperture macros list*
%AMRoundRect*
0 Rectangle with rounded corners*
0 $1 Rounding radius*
0 $2 $3 $4 $5 $6 $7 $8 $9 X,Y pos of 4 corners*
0 Add a 4 corners polygon primitive as box body*
4,1,4,$2,$3,$4,$5,$6,$7,$8,$9,$2,$3,0*
0 Add four circle primitives for the rounded corners*
1,1,$1+$1,$2,$3*
1,1,$1+$1,$4,$5*
1,1,$1+$1,$6,$7*
1,1,$1+$1,$8,$9*
0 Add four rect primitives between the rounded corners*
20,1,$1+$1,$2,$3,$4,$5,0*
20,1,$1+$1,$4,$5,$6,$7,0*
20,1,$1+$1,$6,$7,$8,$9,0*
20,1,$1+$1,$8,$9,$2,$3,0*%
G04 Aperture macros list end*
%TA.AperFunction,Profile*%
%ADD10C,0.100000*%
%TD*%
%ADD11R,2.000000X1.500000*%
%ADD12R,4.550000X5.250000*%
%ADD13R,4.600000X1.100000*%
%ADD14R,2.600000X0.900000*%
%ADD15RoundRect,0.200000X0.200000X0.275000X-0.200000X0.275000X-0.200000X-0.275000X0.200000X-0.275000X0*%
%ADD16RoundRect,0.200000X-0.200000X-0.275000X0.200000X-0.275000X0.200000X0.275000X-0.200000X0.275000X0*%
%ADD17R,3.050000X2.750000*%
%ADD18R,2.200000X1.200000*%
%ADD19RoundRect,0.237500X-0.237500X0.300000X-0.237500X-0.300000X0.237500X-0.300000X0.237500X0.300000X0*%
%ADD20RoundRect,0.200000X-0.275000X0.200000X-0.275000X-0.200000X0.275000X-0.200000X0.275000X0.200000X0*%
%ADD21RoundRect,0.200000X0.275000X-0.200000X0.275000X0.200000X-0.275000X0.200000X-0.275000X-0.200000X0*%
%ADD22R,0.800000X0.900000*%
%ADD23RoundRect,0.150000X0.825000X0.150000X-0.825000X0.150000X-0.825000X-0.150000X0.825000X-0.150000X0*%
%ADD24RoundRect,0.237500X0.237500X-0.300000X0.237500X0.300000X-0.237500X0.300000X-0.237500X-0.300000X0*%
%ADD25R,2.750000X3.050000*%
%ADD26R,1.200000X2.200000*%
%ADD27RoundRect,0.150000X-0.150000X0.587500X-0.150000X-0.587500X0.150000X-0.587500X0.150000X0.587500X0*%
%ADD28RoundRect,0.250000X0.450000X-0.325000X0.450000X0.325000X-0.450000X0.325000X-0.450000X-0.325000X0*%
%ADD29R,1.800000X2.500000*%
%ADD30RoundRect,0.237500X0.300000X0.237500X-0.300000X0.237500X-0.300000X-0.237500X0.300000X-0.237500X0*%
%ADD31RoundRect,0.150000X-0.825000X-0.150000X0.825000X-0.150000X0.825000X0.150000X-0.825000X0.150000X0*%
%ADD32R,2.450000X2.450000*%
%ADD33RoundRect,0.218750X0.256250X-0.218750X0.256250X0.218750X-0.256250X0.218750X-0.256250X-0.218750X0*%
%ADD34R,1.500000X2.000000*%
%ADD35R,3.800000X2.000000*%
%ADD36RoundRect,0.150000X-0.750000X-0.150000X0.750000X-0.150000X0.750000X0.150000X-0.750000X0.150000X0*%
%ADD37R,2.790000X1.190000*%
%ADD38RoundRect,0.137500X-0.137500X0.662500X-0.137500X-0.662500X0.137500X-0.662500X0.137500X0.662500X0*%
G04 APERTURE END LIST*
D10*
X92870000Y-53320000D02*
X235620000Y-53320000D01*
X235620000Y-53320000D02*
X235620000Y-140720000D01*
X235620000Y-140720000D02*
X92870000Y-140720000D01*
X92870000Y-140720000D02*
X92870000Y-53320000D01*
D11*
%TO.C,D10*%
X158810000Y-62450000D03*
X158810000Y-67550000D03*
X167550000Y-67550000D03*
X167550000Y-62450000D03*
%TD*%
D12*
%TO.C,D19*%
X211965000Y-95215000D03*
X211965000Y-100765000D03*
X207115000Y-100765000D03*
X207115000Y-95215000D03*
D13*
X200390000Y-95450000D03*
X200390000Y-100530000D03*
%TD*%
D14*
%TO.C,U1*%
X225130000Y-88860000D03*
X225130000Y-86320000D03*
X214280000Y-86320000D03*
X214280000Y-88860000D03*
%TD*%
D15*
%TO.C,R10*%
X153975000Y-112030000D03*
X152325000Y-112030000D03*
%TD*%
D16*
%TO.C,R8*%
X132355000Y-93210000D03*
X134005000Y-93210000D03*
%TD*%
D17*
%TO.C,Q8*%
X166290000Y-115390000D03*
X166290000Y-118440000D03*
X162940000Y-115390000D03*
X162940000Y-118440000D03*
D18*
X158315000Y-114635000D03*
X158315000Y-116915000D03*
X158315000Y-119195000D03*
%TD*%
D19*
%TO.C,C31*%
X136280000Y-128637500D03*
X136280000Y-130362500D03*
%TD*%
%TO.C,C20*%
X148450000Y-111117500D03*
X148450000Y-112842500D03*
%TD*%
D20*
%TO.C,R6*%
X207031250Y-81777500D03*
X207031250Y-83427500D03*
%TD*%
D19*
%TO.C,C10*%
X142620000Y-95207500D03*
X142620000Y-96932500D03*
%TD*%
%TO.C,C22*%
X144780000Y-116231500D03*
X144780000Y-117956500D03*
%TD*%
D21*
%TO.C,R3*%
X211610000Y-90505000D03*
X211610000Y-88855000D03*
%TD*%
D19*
%TO.C,C19*%
X146600000Y-111127500D03*
X146600000Y-112852500D03*
%TD*%
D22*
%TO.C,D12*%
X143840000Y-101080000D03*
X144790000Y-103080000D03*
X145740000Y-101080000D03*
%TD*%
D21*
%TO.C,R2*%
X193450000Y-90425000D03*
X193450000Y-88775000D03*
%TD*%
D19*
%TO.C,C21*%
X113260000Y-134767500D03*
X113260000Y-136492500D03*
%TD*%
D20*
%TO.C,R5*%
X223500000Y-81465000D03*
X223500000Y-83115000D03*
%TD*%
D23*
%TO.C,U8*%
X120625000Y-114915000D03*
X120625000Y-113645000D03*
X120625000Y-112375000D03*
X120625000Y-111105000D03*
X120625000Y-109835000D03*
X120625000Y-108565000D03*
X120625000Y-107295000D03*
X120625000Y-106025000D03*
X115675000Y-106025000D03*
X115675000Y-107295000D03*
X115675000Y-108565000D03*
X115675000Y-109835000D03*
X115675000Y-111105000D03*
X115675000Y-112375000D03*
X115675000Y-113645000D03*
X115675000Y-114915000D03*
%TD*%
D24*
%TO.C,C11*%
X126530000Y-106012500D03*
X126530000Y-104287500D03*
%TD*%
D15*
%TO.C,R20*%
X149495000Y-122570000D03*
X147845000Y-122570000D03*
%TD*%
D19*
%TO.C,C16*%
X146760000Y-106037500D03*
X146760000Y-107762500D03*
%TD*%
D25*
%TO.C,Q6*%
X171520000Y-121340000D03*
X174570000Y-121340000D03*
X174570000Y-124690000D03*
X171520000Y-124690000D03*
D26*
X170765000Y-129315000D03*
X173045000Y-129315000D03*
X175325000Y-129315000D03*
%TD*%
D21*
%TO.C,R21*%
X132150000Y-126205000D03*
X132150000Y-124555000D03*
%TD*%
D12*
%TO.C,D18*%
X181306000Y-125539000D03*
X186156000Y-125539000D03*
X186156000Y-131089000D03*
X181306000Y-131089000D03*
D13*
X192881000Y-130854000D03*
X192881000Y-125774000D03*
%TD*%
D27*
%TO.C,Q1*%
X221930000Y-81788000D03*
X220030000Y-81788000D03*
X220980000Y-83663000D03*
%TD*%
D15*
%TO.C,R17*%
X146365000Y-121290000D03*
X144715000Y-121290000D03*
%TD*%
D24*
%TO.C,C12*%
X128330000Y-106012500D03*
X128330000Y-104287500D03*
%TD*%
D28*
%TO.C,D15*%
X105706000Y-59810000D03*
X105706000Y-57760000D03*
%TD*%
D19*
%TO.C,C14*%
X103361000Y-57969250D03*
X103361000Y-59694250D03*
%TD*%
D15*
%TO.C,R13*%
X153205000Y-117170000D03*
X151555000Y-117170000D03*
%TD*%
D25*
%TO.C,Q5*%
X174660000Y-111750000D03*
X171610000Y-111750000D03*
X171610000Y-108400000D03*
X174660000Y-108400000D03*
D26*
X170855000Y-116375000D03*
X173135000Y-116375000D03*
X175415000Y-116375000D03*
%TD*%
D29*
%TO.C,D6*%
X158030000Y-80540000D03*
X158030000Y-84540000D03*
%TD*%
D19*
%TO.C,C29*%
X126520000Y-136427500D03*
X126520000Y-138152500D03*
%TD*%
%TO.C,C9*%
X140780000Y-95207500D03*
X140780000Y-96932500D03*
%TD*%
D16*
%TO.C,R12*%
X123155000Y-133110000D03*
X124805000Y-133110000D03*
%TD*%
D24*
%TO.C,C13*%
X130130000Y-106032500D03*
X130130000Y-104307500D03*
%TD*%
D30*
%TO.C,C25*%
X124925000Y-128440000D03*
X123200000Y-128440000D03*
%TD*%
D16*
%TO.C,R11*%
X123185000Y-134790000D03*
X124835000Y-134790000D03*
%TD*%
D19*
%TO.C,C23*%
X146590000Y-116227500D03*
X146590000Y-117952500D03*
%TD*%
D12*
%TO.C,D21*%
X207220000Y-125540000D03*
X212070000Y-125540000D03*
X207220000Y-131090000D03*
X212070000Y-131090000D03*
D13*
X200495000Y-125775000D03*
X200495000Y-130855000D03*
%TD*%
D31*
%TO.C,U10*%
X115725000Y-128455000D03*
X115725000Y-129725000D03*
X115725000Y-130995000D03*
X115725000Y-132265000D03*
X115725000Y-133535000D03*
X115725000Y-134805000D03*
X115725000Y-136075000D03*
X115725000Y-137345000D03*
X120675000Y-137345000D03*
X120675000Y-136075000D03*
X120675000Y-134805000D03*
X120675000Y-133535000D03*
X120675000Y-132265000D03*
X120675000Y-130995000D03*
X120675000Y-129725000D03*
X120675000Y-128455000D03*
%TD*%
D22*
%TO.C,D3*%
X215060000Y-81530000D03*
X216010000Y-83530000D03*
X216960000Y-81530000D03*
%TD*%
D19*
%TO.C,C18*%
X144760000Y-111127500D03*
X144760000Y-112852500D03*
%TD*%
%TO.C,C15*%
X144780000Y-106057500D03*
X144780000Y-107782500D03*
%TD*%
D22*
%TO.C,D13*%
X147550000Y-101090000D03*
X148500000Y-103090000D03*
X149450000Y-101090000D03*
%TD*%
D19*
%TO.C,C7*%
X155040000Y-95227500D03*
X155040000Y-96952500D03*
%TD*%
D25*
%TO.C,Q4*%
X174650000Y-95270000D03*
X171600000Y-98620000D03*
X174650000Y-98620000D03*
X171600000Y-95270000D03*
D26*
X170845000Y-103245000D03*
X173125000Y-103245000D03*
X175405000Y-103245000D03*
%TD*%
D32*
%TO.C,L3*%
X220310000Y-98050000D03*
X227210000Y-98050000D03*
%TD*%
D22*
%TO.C,D4*%
X197910000Y-81630000D03*
X198860000Y-83630000D03*
X199810000Y-81630000D03*
%TD*%
D16*
%TO.C,R18*%
X132960000Y-128650000D03*
X134610000Y-128650000D03*
%TD*%
D33*
%TO.C,D11*%
X106920000Y-98057500D03*
X106920000Y-96482500D03*
%TD*%
D19*
%TO.C,C17*%
X148710000Y-106037500D03*
X148710000Y-107762500D03*
%TD*%
D34*
%TO.C,U5*%
X138500000Y-95430000D03*
X136200000Y-95430000D03*
X133900000Y-95430000D03*
D35*
X136200000Y-101730000D03*
%TD*%
D14*
%TO.C,U4*%
X109990000Y-93940000D03*
X109990000Y-96480000D03*
X120840000Y-96480000D03*
X120840000Y-93940000D03*
%TD*%
D15*
%TO.C,R15*%
X129175000Y-119375000D03*
X127525000Y-119375000D03*
%TD*%
D32*
%TO.C,L4*%
X220310000Y-112950000D03*
X227210000Y-112950000D03*
%TD*%
D12*
%TO.C,D16*%
X181320000Y-100770000D03*
X186170000Y-95220000D03*
X186170000Y-100770000D03*
X181320000Y-95220000D03*
D13*
X192895000Y-100535000D03*
X192895000Y-95455000D03*
%TD*%
D36*
%TO.C,U11*%
X132360000Y-106045000D03*
X132360000Y-107315000D03*
X132360000Y-108585000D03*
X132360000Y-109855000D03*
X132360000Y-111125000D03*
X132360000Y-112395000D03*
X132360000Y-113665000D03*
X132360000Y-114935000D03*
X132360000Y-116205000D03*
X132360000Y-117475000D03*
X132360000Y-118745000D03*
X132360000Y-120015000D03*
X132360000Y-121285000D03*
X132360000Y-122555000D03*
X141960000Y-122555000D03*
X141960000Y-121285000D03*
X141960000Y-120015000D03*
X141960000Y-118745000D03*
X141960000Y-117475000D03*
X141960000Y-116205000D03*
X141960000Y-114935000D03*
X141960000Y-113665000D03*
X141960000Y-112395000D03*
X141960000Y-111125000D03*
X141960000Y-109855000D03*
X141960000Y-108585000D03*
X141960000Y-107315000D03*
X141960000Y-106045000D03*
%TD*%
D19*
%TO.C,C28*%
X124870000Y-136427500D03*
X124870000Y-138152500D03*
%TD*%
D15*
%TO.C,R19*%
X129175000Y-121300000D03*
X127525000Y-121300000D03*
%TD*%
D16*
%TO.C,R14*%
X127525000Y-117525000D03*
X129175000Y-117525000D03*
%TD*%
D19*
%TO.C,C8*%
X131450000Y-95207500D03*
X131450000Y-96932500D03*
%TD*%
%TO.C,C30*%
X138160000Y-128657500D03*
X138160000Y-130382500D03*
%TD*%
D17*
%TO.C,Q9*%
X166270000Y-124550000D03*
X162920000Y-124550000D03*
X162920000Y-127600000D03*
X166270000Y-127600000D03*
D18*
X158295000Y-123795000D03*
X158295000Y-126075000D03*
X158295000Y-128355000D03*
%TD*%
D17*
%TO.C,Q7*%
X162920000Y-106260000D03*
X162920000Y-109310000D03*
X166270000Y-109310000D03*
X166270000Y-106260000D03*
D18*
X158295000Y-105505000D03*
X158295000Y-107785000D03*
X158295000Y-110065000D03*
%TD*%
D14*
%TO.C,U2*%
X206990000Y-88800000D03*
X206990000Y-86260000D03*
X196140000Y-86260000D03*
X196140000Y-88800000D03*
%TD*%
D37*
%TO.C,RV1*%
X116085000Y-98470000D03*
X120915000Y-101010000D03*
X116085000Y-103550000D03*
%TD*%
D12*
%TO.C,D17*%
X186222000Y-115745000D03*
X186222000Y-110195000D03*
X181372000Y-115745000D03*
X181372000Y-110195000D03*
D13*
X192947000Y-115510000D03*
X192947000Y-110430000D03*
%TD*%
D15*
%TO.C,R9*%
X154515000Y-106950000D03*
X152865000Y-106950000D03*
%TD*%
D19*
%TO.C,C27*%
X123230000Y-136427500D03*
X123230000Y-138152500D03*
%TD*%
D22*
%TO.C,D14*%
X151230000Y-101080000D03*
X152180000Y-103080000D03*
X153130000Y-101080000D03*
%TD*%
D23*
%TO.C,U9*%
X120585000Y-126285000D03*
X120585000Y-125015000D03*
X120585000Y-123745000D03*
X120585000Y-122475000D03*
X120585000Y-121205000D03*
X120585000Y-119935000D03*
X120585000Y-118665000D03*
X120585000Y-117395000D03*
X115635000Y-117395000D03*
X115635000Y-118665000D03*
X115635000Y-119935000D03*
X115635000Y-121205000D03*
X115635000Y-122475000D03*
X115635000Y-123745000D03*
X115635000Y-125015000D03*
X115635000Y-126285000D03*
%TD*%
D38*
%TO.C,U3*%
X128440000Y-94240000D03*
X125900000Y-94240000D03*
X125900000Y-100740000D03*
X128440000Y-100740000D03*
%TD*%
D19*
%TO.C,C26*%
X122970000Y-116817500D03*
X122970000Y-118542500D03*
%TD*%
%TO.C,C5*%
X230300000Y-65947500D03*
X230300000Y-67672500D03*
%TD*%
D27*
%TO.C,Q2*%
X205340000Y-81732500D03*
X203440000Y-81732500D03*
X204390000Y-83607500D03*
%TD*%
D19*
%TO.C,C24*%
X148470000Y-116227500D03*
X148470000Y-117952500D03*
%TD*%
D32*
%TO.C,L5*%
X220330000Y-128250000D03*
X227230000Y-128250000D03*
%TD*%
D12*
%TO.C,D20*%
X207150000Y-115715000D03*
X212000000Y-115715000D03*
X212000000Y-110165000D03*
X207150000Y-110165000D03*
D13*
X200425000Y-110400000D03*
X200425000Y-115480000D03*
%TD*%
D20*
%TO.C,R16*%
X128120000Y-136315000D03*
X128120000Y-137965000D03*
%TD*%
M02*
